<?xml version="1.0" standalone="no"?>
<!DOCTYPE svg PUBLIC "-//W3C//DTD SVG 20010904//EN"
 "http://www.w3.org/TR/2001/REC-SVG-20010904/DTD/svg10.dtd">
<svg version="1.0" xmlns="http://www.w3.org/2000/svg"
 width="250.000000pt" height="250.000000pt" viewBox="0 0 250.000000 250.000000"
 preserveAspectRatio="xMidYMid meet">
<metadata>
Created by potrace 1.11, written by Peter Selinger 2001-2013
</metadata>
<g transform="translate(0.000000,250.000000) scale(0.100000,-0.100000)"
fill="#000000" stroke="none">
<path d="M0 1259 l0 -700 234 1 c246 1 288 7 381 51 60 28 151 116 187 181 14
25 32 70 39 100 7 29 15 56 18 60 3 4 6 -82 6 -190 l0 -197 121 -2 120 -1 0
291 -1 292 115 -2 c87 -1 129 3 172 17 104 32 193 105 241 195 15 28 16 1 17
-382 l0 -411 120 0 c103 1 120 3 121 17 0 9 0 139 0 289 l0 272 102 0 c120 0
173 -20 209 -78 22 -35 23 -48 26 -269 l3 -231 120 0 119 0 0 233 c0 204 -2
241 -20 296 -23 75 -85 173 -103 163 -7 -4 0 6 14 22 66 74 98 149 106 244 13
169 -79 325 -237 403 l-65 32 -312 3 -312 3 3 -51 c3 -50 3 -51 -18 -35 -11 9
-50 30 -86 48 l-65 32 -307 3 -308 3 0 -82 0 -82 -44 41 c-24 22 -67 52 -95
66 -94 48 -144 55 -392 55 l-229 0 0 -700z m512 428 c31 -18 57 -44 75 -75
l28 -47 0 -306 0 -306 -30 -49 c-22 -36 -44 -56 -81 -75 -48 -24 -61 -26 -175
-25 l-123 1 0 456 -1 457 130 -2 c123 -1 133 -3 177 -29z m354 -42 c0 -41 -3
-75 -8 -75 -4 0 -8 11 -8 24 0 13 -9 45 -20 71 -11 26 -20 49 -20 51 0 2 12 4
28 4 l27 0 1 -75z m472 59 c64 -25 102 -83 102 -155 0 -38 -20 -91 -44 -114
-42 -42 -68 -49 -189 -51 -66 -1 -116 1 -110 4 6 4 9 66 9 162 -1 85 0 158 2
163 6 14 190 8 230 -9z m774 6 c85 -24 137 -134 103 -216 -35 -85 -77 -107
-207 -110 -53 -1 -101 -5 -107 -8 -6 -4 -10 56 -11 169 l-1 175 93 0 c51 0
109 -5 130 -10z"/>
</g>
</svg>
